<svg width="57" height="66" viewBox="0 0 57 66" fill="none" xmlns="http://www.w3.org/2000/svg">
<path d="M0 48.2093L9.53873 53.6232V21.9133L28.3584 10.8278L33.2566 13.148L42.2798 7.73415L28.3584 4.19617e-05L0 16.4995V48.2093Z" fill="white"/>
<path d="M45.6532 9.5376L47.4335 10.5549L17.1676 27.5954L16.9133 56.081L28.6127 63.5839L56.8439 46.6706V49.2139L28.6127 66L15.0058 57.2255V26.3237L45.6532 9.5376Z" fill="white"/>
<path d="M52.1387 13.2255L50.2312 12.081L19.711 29.6301V54.0463L28.4855 60.4047L56.8439 43.4914V40.948L28.4855 57.9885L21.6185 53.0289V30.6474L52.1387 13.2255Z" fill="white"/>
<path d="M56.8439 15.7688L54.8092 14.6243L24.0347 32.1734V51.6301L28.4855 54.9365L56.8439 38.0232V35.607L28.4855 52.3931L26.3237 50.7399V33.4451L56.8439 15.7688Z" fill="white"/>
</svg>
