<svg width="37" height="28" viewBox="0 0 37 28" fill="none" xmlns="http://www.w3.org/2000/svg">
<path d="M36.7368 9.63522C36.4401 10.3169 35.8864 10.7032 35.2364 11.013C33.7649 11.7145 32.308 12.4502 30.8405 13.1595C30.6296 13.2611 30.5544 13.3758 30.5557 13.6157C30.5663 16.3186 30.5571 19.0215 30.5689 21.7231C30.5702 22.0962 30.4582 22.3863 30.2195 22.6632C27.9649 25.2724 25.142 26.9298 21.7759 27.6299C18.4942 28.3129 15.2745 28.061 12.1589 26.7874C9.89903 25.8631 7.97536 24.4669 6.39054 22.6052C6.18486 22.3639 6.09388 22.112 6.0952 21.793C6.10443 19.0663 6.0952 16.3397 6.10707 13.6131C6.10707 13.3454 6.02796 13.2162 5.78668 13.1068C5.1604 12.8233 4.54994 12.5082 3.92498 12.201C3.84587 12.3025 3.87883 12.4001 3.87883 12.4871C3.87619 14.2802 3.88147 16.0747 3.87224 17.8678C3.87224 18.0854 3.93157 18.1961 4.12934 18.3069C5.53221 19.0861 5.54144 21.0546 4.14516 21.8576C3.94739 21.971 3.95003 22.0593 4.00936 22.2452C4.60004 24.103 5.18149 25.9647 5.76426 27.825C5.77745 27.8685 5.78931 27.9134 5.80777 27.9793H0.502189C0.847632 26.8718 1.18912 25.7735 1.53456 24.6778C1.78376 23.8841 2.03427 23.0904 2.29533 22.2993C2.36653 22.083 2.36521 21.9657 2.13184 21.8233C0.767204 20.99 0.81467 19.0782 2.21095 18.2911C2.37707 18.1975 2.44695 18.1104 2.44695 17.9113C2.43772 15.8426 2.43772 13.7739 2.44695 11.7052C2.44695 11.5022 2.37312 11.4218 2.20567 11.3374C1.68355 11.079 1.13242 10.8759 0.670955 10.5028C-0.219022 9.78157 -0.225615 8.72546 0.663044 8.00161C0.887187 7.81966 1.14034 7.6865 1.39876 7.56256C6.27188 5.24071 11.145 2.90699 16.026 0.593047C17.7111 -0.205955 19.4277 -0.196726 21.1022 0.615461C25.8131 2.9004 30.5122 5.2117 35.2205 7.50191C35.9022 7.83285 36.4863 8.23367 36.7368 8.99048V9.63653V9.63522ZM5.55594 11.4521C5.7102 11.5286 5.77349 11.5602 5.83678 11.5918C9.38746 13.2966 12.9355 15.0041 16.4888 16.7023C17.8389 17.3484 19.197 17.3576 20.5511 16.697C23.7444 15.1399 26.9391 13.5867 30.1312 12.0296C31.6817 11.2728 33.2296 10.5094 34.7762 9.74465C35.0069 9.63126 35.3458 9.53765 35.3432 9.26472C35.3418 9.01025 35.0043 8.93642 34.7828 8.8283C30.0362 6.50777 25.291 4.18592 20.5432 1.87066C19.2154 1.22328 17.8719 1.22988 16.5429 1.86407C13.0199 3.54513 9.50349 5.23675 5.98577 6.92705C4.55917 7.61134 3.1352 8.30091 1.71124 8.99048C1.5728 9.05772 1.39085 9.13156 1.38821 9.29505C1.38557 9.4559 1.55961 9.5416 1.69674 9.60885C2.12393 9.8198 2.56034 10.0097 2.98226 10.2285C3.19322 10.338 3.39758 10.3868 3.63227 10.3577C4.73453 10.2233 5.83678 10.0954 6.93903 9.96484C8.45529 9.78552 9.97287 9.60489 11.4891 9.42558C13.0291 9.24363 14.5704 9.05904 16.1104 8.87972C16.8448 8.79402 17.5792 8.69646 18.3162 8.63976C18.7672 8.60548 19.0651 8.95356 19.0124 9.38602C18.9728 9.71564 18.7131 9.92001 18.2239 9.97802C16.3636 10.1995 14.5019 10.4158 12.6415 10.632C10.3104 10.9036 7.97932 11.1726 5.55462 11.4534L5.55594 11.4521ZM29.203 13.9058C29.0632 13.9744 28.9709 14.0205 28.8786 14.0653C26.2825 15.3363 23.6864 16.6074 21.0877 17.8757C19.3803 18.709 17.6596 18.6985 15.9535 17.8955C13.2625 16.6285 10.5846 15.335 7.90021 14.0548C7.7855 14.0007 7.68134 13.9071 7.5073 13.9295V14.3132C7.5073 16.37 7.5073 18.4256 7.5073 20.4824C7.5073 21.967 7.49148 21.9855 8.6056 22.9519C12.8577 26.6397 17.7097 27.5178 23.0338 25.908C25.3978 25.1933 27.39 23.834 29.0355 21.9828C29.1304 21.876 29.2069 21.7758 29.2056 21.611C29.199 19.065 29.2016 16.519 29.2016 13.9058H29.203Z" fill="black"/>
</svg>
