<svg width="28" height="28" viewBox="0 0 28 28" fill="none" xmlns="http://www.w3.org/2000/svg">
<path fill-rule="evenodd" clip-rule="evenodd" d="M1 14C1 21.1797 6.8203 27 14 27C21.1797 27 27 21.1797 27 14C27 6.8203 21.1797 1 14 1C6.8203 1 1 6.8203 1 14ZM14 0C6.26801 0 0 6.26801 0 14C0 21.732 6.26801 28 14 28C21.732 28 28 21.732 28 14C28 6.26801 21.732 0 14 0Z" fill="black"/>
<path d="M13.6984 19.1192C13.1132 19.1192 12.5961 19.0155 12.1473 18.8082C11.7013 18.5979 11.3532 18.3096 11.1032 17.9431C10.8532 17.5738 10.7297 17.1533 10.7325 16.6817C10.7297 16.3124 10.8021 15.9715 10.9498 15.659C11.0976 15.3437 11.2993 15.0809 11.5549 14.8707C11.8135 14.6576 12.1018 14.5226 12.42 14.4658V14.4147C12.0024 14.3067 11.67 14.0724 11.4228 13.7116C11.1757 13.3479 11.0535 12.9346 11.0564 12.4715C11.0535 12.0283 11.1657 11.632 11.393 11.2826C11.6203 10.9331 11.9328 10.6576 12.3305 10.4559C12.7311 10.2542 13.187 10.1533 13.6984 10.1533C14.2041 10.1533 14.6558 10.2542 15.0535 10.4559C15.4513 10.6576 15.7638 10.9331 15.991 11.2826C16.2211 11.632 16.3376 12.0283 16.3405 12.4715C16.3376 12.9346 16.2112 13.3479 15.9612 13.7116C15.714 14.0724 15.3859 14.3067 14.9768 14.4147V14.4658C15.2922 14.5226 15.5763 14.6576 15.8291 14.8707C16.0819 15.0809 16.2836 15.3437 16.4342 15.659C16.5848 15.9715 16.6615 16.3124 16.6643 16.6817C16.6615 17.1533 16.5336 17.5738 16.2808 17.9431C16.0308 18.3096 15.6828 18.5979 15.2368 18.8082C14.7936 19.0155 14.2808 19.1192 13.6984 19.1192ZM13.6984 18.1817C14.0933 18.1817 14.4342 18.1178 14.7211 17.99C15.0081 17.8621 15.2297 17.6817 15.3859 17.4488C15.5422 17.2158 15.6217 16.9431 15.6245 16.6306C15.6217 16.301 15.5365 16.0099 15.3689 15.757C15.2013 15.5042 14.9726 15.3053 14.6828 15.1604C14.3959 15.0155 14.0677 14.9431 13.6984 14.9431C13.3263 14.9431 12.9939 15.0155 12.7013 15.1604C12.4115 15.3053 12.1828 15.5042 12.0152 15.757C11.8504 16.0099 11.7694 16.301 11.7723 16.6306C11.7694 16.9431 11.8447 17.2158 11.9981 17.4488C12.1544 17.6817 12.3774 17.8621 12.6672 17.99C12.9569 18.1178 13.3007 18.1817 13.6984 18.1817ZM13.6984 14.0397C14.0109 14.0397 14.2879 13.9772 14.5294 13.8522C14.7737 13.7272 14.9655 13.5525 15.1047 13.328C15.2439 13.1036 15.3149 12.8408 15.3177 12.5397C15.3149 12.2442 15.2453 11.9871 15.1089 11.7684C14.9726 11.5468 14.7836 11.3763 14.5422 11.257C14.3007 11.1349 14.0194 11.0738 13.6984 11.0738C13.3717 11.0738 13.0862 11.1349 12.8419 11.257C12.5976 11.3763 12.4086 11.5468 12.2751 11.7684C12.1416 11.9871 12.0763 12.2442 12.0791 12.5397C12.0763 12.8408 12.143 13.1036 12.2794 13.328C12.4186 13.5525 12.6103 13.7272 12.8547 13.8522C13.099 13.9772 13.3802 14.0397 13.6984 14.0397Z" fill="black"/>
<path d="M13.5 1.5H14.5V7.5H13.5V1.5Z" fill="black"/>
<path d="M1.61523 14.5V13.5H7.61523V14.5H1.61523Z" fill="black"/>
<path d="M24.5 14.5V13.5H26.5V14.5H24.5Z" fill="black"/>
<path d="M13.5 24.5H14.5V26.5H13.5V24.5Z" fill="black"/>
<path d="M21.2929 21.7071L22 21L23.4142 22.4142L22.7071 23.1213L21.2929 21.7071Z" fill="black"/>
<path d="M4.99992 5.70711L5.70703 5L7.12124 6.41421L6.41414 7.12132L4.99992 5.70711Z" fill="black"/>
<path d="M7.12117 21.7071L6.41406 21L4.99985 22.4142L5.70696 23.1213L7.12117 21.7071Z" fill="black"/>
<path d="M23.4141 5.70711L22.707 5L21.2928 6.41421L21.9999 7.12132L23.4141 5.70711Z" fill="black"/>
<path d="M18.1436 12.4447V14.0001H17.2754V10.3638H18.1152V11.7736H18.1454C18.207 11.6055 18.3076 11.4741 18.4473 11.3794C18.5881 11.2847 18.7604 11.2373 18.964 11.2373C19.1557 11.2373 19.3226 11.28 19.4647 11.3652C19.6067 11.4492 19.7168 11.5682 19.7949 11.7221C19.8742 11.876 19.9133 12.0559 19.9121 12.2619V14.0001H19.0439V12.4323C19.045 12.2808 19.0072 12.1624 18.9302 12.0772C18.8533 11.992 18.745 11.9494 18.6053 11.9494C18.5141 11.9494 18.4337 11.9695 18.3638 12.0097C18.2952 12.0488 18.2413 12.105 18.2022 12.1784C18.1644 12.2518 18.1448 12.3406 18.1436 12.4447Z" fill="black"/>
<path d="M20.4541 14.0001V11.2729H21.2975V11.77H21.3259C21.3756 11.5901 21.4567 11.4563 21.5692 11.3687C21.6816 11.28 21.8124 11.2356 21.9616 11.2356C22.0018 11.2356 22.0432 11.2385 22.0858 11.2445C22.1285 11.2492 22.1681 11.2569 22.2048 11.2675V12.0222C22.1634 12.0079 22.1089 11.9967 22.0415 11.9884C21.9752 11.9801 21.916 11.976 21.8639 11.976C21.7609 11.976 21.668 11.9991 21.5851 12.0452C21.5035 12.0902 21.439 12.1535 21.3916 12.2352C21.3454 12.3157 21.3224 12.4104 21.3224 12.5193V14.0001H20.4541Z" fill="black"/>
</svg>
