<svg width="28" height="28" viewBox="0 0 28 28" fill="none" xmlns="http://www.w3.org/2000/svg">
<path fill-rule="evenodd" clip-rule="evenodd" d="M1 14C1 21.1797 6.8203 27 14 27C21.1797 27 27 21.1797 27 14C27 6.8203 21.1797 1 14 1C6.8203 1 1 6.8203 1 14ZM14 0C6.26801 0 0 6.26801 0 14C0 21.732 6.26801 28 14 28C21.732 28 28 21.732 28 14C28 6.26801 21.732 0 14 0Z" fill="black"/>
<path fill-rule="evenodd" clip-rule="evenodd" d="M10 10C10 12.2091 11.7909 14 14 14C16.2091 14 18 12.2091 18 10C18 7.79086 16.2091 6 14 6C11.7909 6 10 7.79086 10 10ZM14 5C11.2386 5 9 7.23858 9 10C9 12.7614 11.2386 15 14 15C16.7614 15 19 12.7614 19 10C19 7.23858 16.7614 5 14 5Z" fill="black"/>
<path fill-rule="evenodd" clip-rule="evenodd" d="M8.69227 18.1477C7.24393 18.751 6.5 19.5643 6.5 20.4983H5.5C5.5 18.9324 6.75607 17.871 8.30773 17.2246C9.88727 16.5666 11.9577 16.2489 14 16.249C16.0423 16.2491 18.1128 16.567 19.6923 17.225C21.2439 17.8714 22.5 18.9328 22.5 20.4983H21.5C21.5 19.5647 20.7561 18.7515 19.3077 18.1481C17.8872 17.5563 15.9577 17.2491 14 17.249C12.0423 17.2489 10.1127 17.556 8.69227 18.1477Z" fill="black"/>
</svg>
