<svg width="30" height="28" viewBox="0 0 30 28" fill="none" xmlns="http://www.w3.org/2000/svg">
<path d="M1 9H29V10H1V9Z" fill="black"/>
<path fill-rule="evenodd" clip-rule="evenodd" d="M10 18C10 20.7614 12.2386 23 15 23C17.7614 23 20 20.7614 20 18C20 15.2386 17.7614 13 15 13C12.2386 13 10 15.2386 10 18ZM15 12C11.6863 12 9 14.6863 9 18C9 21.3137 11.6863 24 15 24C18.3137 24 21 21.3137 21 18C21 14.6863 18.3137 12 15 12Z" fill="black"/>
<path d="M14.6579 19.5685L13.0715 17.9821C12.9762 17.8868 12.9762 17.7323 13.0715 17.6369L13.4166 17.2918C13.5119 17.1965 13.6665 17.1965 13.7618 17.2918L14.8305 18.3605L17.1195 16.0715C17.2148 15.9762 17.3693 15.9762 17.4646 16.0715L17.8098 16.4166C17.9051 16.5119 17.9051 16.6665 17.8098 16.7618L15.003 19.5685C14.9077 19.6638 14.7532 19.6638 14.6579 19.5685Z" fill="black"/>
<rect x="5" width="1" height="7" rx="0.5" fill="black"/>
<rect x="24" width="1" height="7" rx="0.5" fill="black"/>
<path fill-rule="evenodd" clip-rule="evenodd" d="M1.16335 5.34227C1.06853 5.5477 1 5.89784 1 6.49983V24.9998C1 26.0013 1.13623 26.4404 1.33989 26.6594C1.53123 26.8652 1.90164 26.9999 2.78985 26.9998H26C27.7077 26.9998 28.3773 26.629 28.6678 26.2554C28.9807 25.8532 29 25.2942 29 24.5V6.49983C29 5.56716 28.7686 5.30062 28.5644 5.18396C28.4323 5.10848 28.2457 5.0565 27.9724 5.02847C27.6983 5.00036 27.382 4.99983 27 4.99983H26V3.99983L27.0163 3.99983C27.3789 3.99983 27.7442 3.99982 28.0745 4.03369C28.4106 4.06817 28.7552 4.14119 29.0606 4.31571C29.7314 4.69905 30 5.4325 30 6.49983V24.5C30 24.5225 30 24.5451 30 24.568C30.0006 25.2654 30.0014 26.1697 29.4572 26.8694C28.8727 27.6208 27.7923 27.9998 26 27.9998H2.78996C2.78994 27.9998 2.78998 27.9998 2.78996 27.9998C1.88829 27.9999 1.11372 27.8847 0.607585 27.3404C0.113768 26.8094 0 25.9984 0 24.9998V6.49983C0 5.85193 0.0689681 5.32711 0.255398 4.9232C0.457601 4.4851 0.782758 4.22149 1.19497 4.08705C1.57028 3.96465 2.00871 3.95308 2.44947 3.96088C2.63465 3.96415 2.81849 3.97074 3.00938 3.97758C3.31099 3.98839 3.63018 3.99983 4 3.99983V4.99983C3.62235 4.99983 3.25574 4.987 2.93516 4.97578C2.7497 4.96929 2.57965 4.96334 2.43178 4.96072C1.99129 4.95293 1.70472 4.97264 1.50503 5.03777C1.34224 5.09086 1.2424 5.171 1.16335 5.34227ZM23 4.99983H7V3.99983H23V4.99983Z" fill="black"/>
</svg>
