<svg width="33" height="28" viewBox="0 0 33 28" fill="none" xmlns="http://www.w3.org/2000/svg">
<path fill-rule="evenodd" clip-rule="evenodd" d="M31 1H15C14.4477 1 14 1.44772 14 2V26C14 26.5523 14.4477 27 15 27H31C31.5523 27 32 26.5523 32 26V2C32 1.44772 31.5523 1 31 1ZM15 0C13.8954 0 13 0.895431 13 2V26C13 27.1046 13.8954 28 15 28H31C32.1046 28 33 27.1046 33 26V2C33 0.895431 32.1046 0 31 0H15Z" fill="black"/>
<rect x="17" y="4" width="9" height="1" rx="0.5" fill="black"/>
<rect x="17" y="8" width="12" height="1" rx="0.5" fill="black"/>
<rect x="17" y="12" width="8" height="1" rx="0.5" fill="black"/>
<rect x="17" y="16" width="11" height="1" rx="0.5" fill="black"/>
<path fill-rule="evenodd" clip-rule="evenodd" d="M10 1H2C1.44772 1 1 1.44772 1 2V10C1 10.5523 1.44772 11 2 11H10C10.5523 11 11 10.5523 11 10V2C11 1.44772 10.5523 1 10 1ZM2 0C0.895431 0 0 0.895431 0 2V10C0 11.1046 0.895431 12 2 12H10C11.1046 12 12 11.1046 12 10V2C12 0.895431 11.1046 0 10 0H2Z" fill="black"/>
<path d="M6.8892 6.095L8.08037 4.90383C8.22654 4.75765 8.22654 4.52066 8.08037 4.37436L7.81564 4.10963C7.66946 3.96346 7.43247 3.96346 7.28617 4.10963L6.095 5.3008L4.90383 4.10963C4.75765 3.96346 4.52066 3.96346 4.37436 4.10963L4.10963 4.37436C3.96346 4.52054 3.96346 4.75753 4.10963 4.90383L5.3008 6.095L4.10963 7.28617C3.96346 7.43235 3.96346 7.66934 4.10963 7.81564L4.37436 8.08037C4.52054 8.22654 4.75765 8.22654 4.90383 8.08037L6.095 6.8892L7.28617 8.08037C7.43235 8.22654 7.66946 8.22654 7.81564 8.08037L8.08037 7.81564C8.22654 7.66946 8.22654 7.43247 8.08037 7.28617L6.8892 6.095Z" fill="black"/>
</svg>
