<svg width="28" height="28" viewBox="0 0 28 28" fill="none" xmlns="http://www.w3.org/2000/svg">
<path d="M14.0028 28C6.2843 28 0.0255264 21.7432 7.68716e-05 14.0664C-0.0253727 6.30588 6.27158 -0.0127089 14.001 1.91958e-05C21.7504 0.0127473 28.0128 6.28042 27.9982 14.0355C27.9855 21.7614 21.7322 28 14.001 28H14.0028ZM1.35618 13.9936C1.36708 20.9995 6.99507 26.649 13.9683 26.6526C20.9942 26.6563 26.6367 21.0214 26.6494 13.99C26.6621 7.00411 20.9905 1.34556 13.9828 1.35283C6.99871 1.35829 1.34527 7.01683 1.35618 13.9936Z" fill="black"/>
<path d="M14.6735 9.66254C14.6735 10.8226 14.6808 11.9827 14.6681 13.1428C14.6645 13.4082 14.7299 13.5337 15.0008 13.621C16.1733 13.9919 17.3348 14.3901 18.5001 14.781C18.9727 14.9392 19.1799 15.2611 19.0636 15.6484C18.9473 16.0339 18.5037 16.2175 18.0456 16.0629C16.6859 15.6084 15.3261 15.152 13.9682 14.6956C13.4501 14.521 13.3356 14.3683 13.3356 13.8246C13.3356 11.5154 13.3356 9.20614 13.3356 6.8969C13.3356 6.60416 13.3284 6.31141 13.3393 6.01867C13.3556 5.59682 13.6156 5.33862 14.0046 5.33862C14.3936 5.33862 14.6645 5.59682 14.6681 6.02048C14.6772 7.23511 14.6717 8.44973 14.6717 9.66254H14.6735Z" fill="black"/>
</svg>
