<svg width="34" height="28" viewBox="0 0 34 28" fill="none" xmlns="http://www.w3.org/2000/svg">
<path fill-rule="evenodd" clip-rule="evenodd" d="M32.1435 6.4221C31.8682 6.22536 31.4718 6.15586 31.1818 6.16713L31.1721 6.1675H10.5C10.2239 6.1675 10 5.94365 10 5.6675V5.6675C10 5.39136 10.2239 5.1675 10.5 5.1675H31.1533C31.5783 5.15281 32.2137 5.24311 32.725 5.60853C32.9912 5.79879 33.2248 6.06532 33.3646 6.42377C33.5039 6.78069 33.5377 7.19663 33.4568 7.66815L33.454 7.6843L31.3913 16.2809L31.3905 16.2842C31.1751 17.1557 30.1464 18.7355 27.8089 18.6636H13.0736C12.7975 18.6636 12.5736 18.4398 12.5736 18.1636V18.1636C12.5736 17.8875 12.7975 17.6636 13.0736 17.6636H27.8248L27.8329 17.6639C29.6055 17.7213 30.2908 16.5626 30.4193 16.0459L30.4197 16.0443L32.4738 7.48361C32.5264 7.16365 32.4932 6.94139 32.433 6.78721C32.3725 6.63211 32.2726 6.51439 32.1435 6.4221Z" fill="black"/>
<path fill-rule="evenodd" clip-rule="evenodd" d="M12.75 25.5C12.75 26.4665 13.5335 27.25 14.5 27.25C15.4665 27.25 16.25 26.4665 16.25 25.5C16.25 24.5335 15.4665 23.75 14.5 23.75C13.5335 23.75 12.75 24.5335 12.75 25.5ZM14.5 23C13.1193 23 12 24.1193 12 25.5C12 26.8807 13.1193 28 14.5 28C15.8807 28 17 26.8807 17 25.5C17 24.1193 15.8807 23 14.5 23Z" fill="black"/>
<path fill-rule="evenodd" clip-rule="evenodd" d="M25.75 25.5C25.75 26.4665 26.5335 27.25 27.5 27.25C28.4665 27.25 29.25 26.4665 29.25 25.5C29.25 24.5335 28.4665 23.75 27.5 23.75C26.5335 23.75 25.75 24.5335 25.75 25.5ZM27.5 23C26.1193 23 25 24.1193 25 25.5C25 26.8807 26.1193 28 27.5 28C28.8807 28 30 26.8807 30 25.5C30 24.1193 28.8807 23 27.5 23Z" fill="black"/>
<rect y="8" width="6" height="1" rx="0.5" fill="black"/>
<rect y="12" width="7" height="1" rx="0.5" fill="black"/>
<rect y="16" width="8" height="1" rx="0.5" fill="black"/>
<path fill-rule="evenodd" clip-rule="evenodd" d="M5.61093 1.2068C4.9791 1.00858 4.28921 0.962739 3.73359 1.01467C3.46284 1.03997 3.19566 0.881146 3.12738 0.617926V0.617926C3.05739 0.348146 3.2224 0.0720338 3.49912 0.038838C4.22338 -0.0480422 5.11378 0.00452963 5.93051 0.260752C6.95429 0.58193 7.9553 1.25854 8.27179 2.47872C8.67234 4.02296 9.50777 8.65977 10.2773 12.9307C10.6871 15.2054 11.0783 17.3762 11.375 18.9209C11.502 19.5235 12.362 21.0051 14.9978 21.0051H30.5025C30.7773 21.0051 31 21.2278 31 21.5025V21.5025C31 21.7773 30.7773 22 30.5025 22H14.9978C11.8568 22 10.5815 20.1704 10.362 19.1128L10.3606 19.1059C10.0558 17.5199 9.65807 15.3116 9.24409 13.0134C8.48059 8.77486 7.66201 4.23052 7.27021 2.71998C7.0705 1.95003 6.43687 1.46591 5.61093 1.2068Z" fill="black"/>
</svg>
