<svg width="36" height="18" viewBox="0 0 36 18" fill="none" xmlns="http://www.w3.org/2000/svg">
<path d="M0.773438 3.61377V2.36377H9.50071V3.61377H5.84162V14.0001H4.43253V3.61377H0.773438Z" fill="black"/>
<path d="M10.2372 17.2729C10.01 17.2729 9.80732 17.2539 9.62929 17.216C9.45126 17.182 9.32815 17.1479 9.25997 17.1138L9.60088 15.932C9.92664 16.0153 10.2145 16.0456 10.4645 16.0229C10.7145 16.0001 10.9361 15.8884 11.1293 15.6876C11.3263 15.4907 11.5062 15.1706 11.6691 14.7274L11.9191 14.0456L8.69179 5.27286H10.1463L12.5554 12.2274H12.6463L15.0554 5.27286H16.51L12.8054 15.2729C12.6388 15.7236 12.4323 16.0967 12.1861 16.3922C11.9399 16.6914 11.6539 16.913 11.3282 17.057C11.0062 17.2009 10.6425 17.2729 10.2372 17.2729Z" fill="black"/>
<path d="M17.1599 17.2729V5.27286H18.4553V6.65922H18.6144C18.7129 6.50771 18.8493 6.31453 19.0235 6.07968C19.2015 5.84104 19.4553 5.62892 19.7849 5.44332C20.1182 5.25392 20.5689 5.15922 21.1371 5.15922C21.872 5.15922 22.5197 5.34294 23.0803 5.71036C23.6409 6.07778 24.0784 6.59862 24.3928 7.27286C24.7072 7.9471 24.8644 8.74256 24.8644 9.65922C24.8644 10.5835 24.7072 11.3846 24.3928 12.0626C24.0784 12.7369 23.6428 13.2596 23.086 13.6308C22.5292 13.9982 21.8871 14.182 21.1599 14.182C20.5993 14.182 20.1504 14.0891 19.8133 13.9035C19.4761 13.7141 19.2167 13.5001 19.0349 13.2615C18.853 13.0191 18.7129 12.8183 18.6144 12.6592H18.5008V17.2729H17.1599ZM18.478 9.6365C18.478 10.2956 18.5746 10.877 18.7678 11.3808C18.961 11.8808 19.2432 12.2729 19.6144 12.557C19.9856 12.8373 20.4402 12.9774 20.978 12.9774C21.5386 12.9774 22.0064 12.8297 22.3814 12.5342C22.7602 12.235 23.0443 11.8335 23.2337 11.3297C23.4269 10.8221 23.5235 10.2577 23.5235 9.6365C23.5235 9.02286 23.4288 8.46983 23.2394 7.97741C23.0538 7.48119 22.7716 7.08915 22.3928 6.80127C22.0178 6.5096 21.5462 6.36377 20.978 6.36377C20.4326 6.36377 19.9743 6.50203 19.603 6.77854C19.2318 7.05127 18.9515 7.43385 18.7621 7.92627C18.5727 8.41491 18.478 8.98498 18.478 9.6365Z" fill="black"/>
<path d="M29.4489 14.182C28.608 14.182 27.8827 13.9963 27.2728 13.6251C26.6668 13.2501 26.1989 12.7274 25.8694 12.057C25.5436 11.3827 25.3808 10.5986 25.3808 9.70468C25.3808 8.81074 25.5436 8.02286 25.8694 7.34104C26.1989 6.65544 26.6573 6.12135 27.2444 5.73877C27.8353 5.35241 28.5247 5.15922 29.3126 5.15922C29.7671 5.15922 30.216 5.23498 30.6592 5.3865C31.1024 5.53801 31.5058 5.78422 31.8694 6.12513C32.233 6.46225 32.5228 6.90922 32.7387 7.46604C32.9546 8.02286 33.0626 8.70847 33.0626 9.52286V10.091H26.3353V8.93195H31.6989C31.6989 8.43953 31.6005 8.00013 31.4035 7.61377C31.2103 7.22741 30.9338 6.92248 30.5739 6.699C30.2179 6.47551 29.7974 6.36377 29.3126 6.36377C28.7785 6.36377 28.3164 6.49635 27.9262 6.7615C27.5399 7.02286 27.2425 7.36377 27.0342 7.78422C26.8258 8.20468 26.7217 8.65544 26.7217 9.1365V9.90922C26.7217 10.5683 26.8353 11.127 27.0626 11.5854C27.2936 12.0399 27.6137 12.3865 28.0228 12.6251C28.4319 12.86 28.9073 12.9774 29.4489 12.9774C29.8012 12.9774 30.1194 12.9282 30.4035 12.8297C30.6914 12.7274 30.9395 12.5759 31.1478 12.3751C31.3561 12.1706 31.5171 11.9168 31.6308 11.6138L32.9262 11.9774C32.7899 12.4168 32.5607 12.8032 32.2387 13.1365C31.9168 13.466 31.519 13.7236 31.0455 13.9092C30.5721 14.091 30.0399 14.182 29.4489 14.182Z" fill="black"/>
<rect x="34" width="1.2" height="18" fill="black"/>
</svg>
