<svg width="36" height="28" viewBox="0 0 36 28" fill="none" xmlns="http://www.w3.org/2000/svg">
<g clip-path="url(#clip0_9_229)">
<path d="M17.5246 27.9913H12.4094C11.2173 27.9913 10.0263 27.9913 8.83424 27.9913C8.14295 27.9913 7.66264 27.8299 7.36609 27.4994C7.06759 27.1659 6.96064 26.6651 7.0394 25.967C7.4779 22.0409 10.1663 19.478 14.0545 19.2787C15.2416 19.2184 16.4298 19.1873 17.5849 19.1873C18.8167 19.1873 20.0457 19.2223 21.2377 19.2913C24.9334 19.5062 27.8406 22.4892 28.001 26.2315C28.0263 26.8129 27.897 27.2563 27.6179 27.548C27.3379 27.8406 26.8984 27.9894 26.3131 27.9904C25.0579 27.9923 23.8026 27.9933 22.5474 27.9933H17.5255L17.5246 27.9913ZM22.1838 27.1104C23.5567 27.1104 24.9295 27.1104 26.3014 27.1085C26.6437 27.1085 26.8401 27.056 26.9577 26.9354C27.0754 26.8149 27.122 26.6165 27.1123 26.2743C27.0229 22.8188 24.2499 20.1751 20.6621 20.1265C19.5985 20.1119 18.5309 20.1051 17.4886 20.1051C16.4463 20.1051 15.3816 20.1129 14.351 20.1275C10.8819 20.177 8.2956 22.5348 7.91543 25.9943C7.86196 26.4833 7.89599 26.7449 8.03405 26.8985C8.16823 27.0482 8.4113 27.1095 8.87314 27.1095H22.1848L22.1838 27.1104Z" fill="black"/>
<path d="M17.5838 19.194C18.8021 19.194 20.0204 19.2281 21.2367 19.2981C24.9655 19.5139 27.8337 22.4988 27.9932 26.2315C28.0428 27.3943 27.4876 27.9806 26.3121 27.9825C25.0598 27.9845 23.8065 27.9855 22.5542 27.9855C20.8896 27.9855 19.2241 27.9845 17.5595 27.9845H17.5245C15.8337 27.9845 14.1429 27.9845 12.4521 27.9845C11.2465 27.9845 10.0398 27.9845 8.83421 27.9845C7.4623 27.9845 6.89351 27.3399 7.04616 25.968C7.47883 22.0973 10.1526 19.4857 14.0544 19.2864C15.229 19.2261 16.4064 19.195 17.5838 19.195M12.5367 27.1192C14.1964 27.1192 15.8561 27.1192 17.5158 27.1192C19.0705 27.1192 20.6252 27.1192 22.1799 27.1192C23.5537 27.1192 24.9285 27.1192 26.3024 27.1172C26.9606 27.1172 27.1376 26.9276 27.121 26.2752C27.0306 22.8129 24.2751 20.1702 20.6641 20.1206C19.6072 20.106 18.5503 20.0992 17.4934 20.0992C16.4365 20.0992 15.4001 20.106 14.3539 20.1216C10.8449 20.1712 8.29361 22.5144 7.9115 25.9952C7.81136 26.9053 7.99415 27.1192 8.87601 27.1192C10.0962 27.1192 11.3174 27.1192 12.5377 27.1192M17.5858 19.1804C16.4307 19.1804 15.2426 19.2115 14.0554 19.2718C12.1449 19.37 10.4803 20.0506 9.24062 21.2397C8.0097 22.4211 7.24646 24.0555 7.03352 25.966C6.95574 26.6661 7.06269 27.1687 7.36216 27.5032C7.65968 27.8357 8.14194 27.9981 8.83518 27.9981C10.0408 27.9981 11.2474 27.9981 12.4531 27.9981H17.5605C18.3928 27.9981 19.2251 27.9981 20.0573 27.9981C20.8896 27.9981 21.7219 27.9981 22.5542 27.9981C24.0194 27.9981 25.2134 27.9981 26.3121 27.9952C26.9003 27.9952 27.3408 27.8445 27.6227 27.5509C27.9028 27.2572 28.033 26.8129 28.0078 26.2295C27.93 24.4162 27.2037 22.7127 25.964 21.4352C24.7185 20.1517 23.0403 19.3865 21.2377 19.2825C20.0457 19.2135 18.8167 19.1785 17.5848 19.1785L17.5858 19.1804ZM12.5377 27.1046C11.3174 27.1046 10.0962 27.1046 8.87601 27.1046C8.41709 27.1046 8.17499 27.0443 8.04276 26.8955C7.90664 26.7439 7.87261 26.4833 7.92609 25.9971C8.30528 22.5416 10.8887 20.1867 14.3549 20.1371C15.3865 20.1226 16.4433 20.1148 17.4944 20.1148C18.5454 20.1148 19.6033 20.1226 20.665 20.1362C24.2479 20.1848 27.018 22.8246 27.1084 26.2762C27.1171 26.6165 27.0714 26.8129 26.9557 26.9325C26.8391 27.0521 26.6446 27.1026 26.3053 27.1036C24.9314 27.1046 23.5566 27.1055 22.1828 27.1055H12.5396L12.5377 27.1046Z" fill="black"/>
<path d="M17.4818 17.4964C16.0885 17.4915 14.773 16.9354 13.7774 15.9281C12.7827 14.9227 12.2402 13.6033 12.2509 12.2129C12.2723 9.38844 14.6826 7.00244 17.5158 7.00244C18.9091 7.00244 20.2237 7.55276 21.2183 8.55033C22.2169 9.55179 22.7652 10.8731 22.7623 12.2732C22.7565 15.1531 20.3958 17.4964 17.5003 17.4964H17.4828H17.4818ZM17.5013 7.88431C15.1376 7.89695 13.1415 9.89889 13.1415 12.2548C13.1415 14.6087 15.1386 16.6057 17.5003 16.6145H17.5168C19.9057 16.6145 21.8581 14.6699 21.8697 12.28C21.8756 11.1162 21.4176 10.0136 20.5824 9.17356C19.755 8.34226 18.669 7.88431 17.5246 7.88431H17.5013Z" fill="black"/>
<path d="M17.5148 7.0092H17.5177C20.3947 7.01115 22.7603 9.38743 22.7545 12.2722C22.7487 15.1512 20.3918 17.4885 17.4993 17.4885H17.4818C14.6077 17.4788 12.2363 15.085 12.2577 12.2129C12.279 9.37381 14.668 7.01018 17.5148 7.0092ZM17.5177 16.6213C19.9096 16.6213 21.8668 14.6747 21.8775 12.279C21.8882 9.8794 19.9047 7.87552 17.5245 7.87552C17.5168 7.87552 17.509 7.87552 17.5012 7.87552C15.1308 7.88815 13.1337 9.8901 13.1337 12.2537C13.1337 14.6281 15.1181 16.6115 17.5002 16.6203H17.5168M17.5139 6.99365C16.1332 6.99365 14.8187 7.54105 13.8153 8.53473C12.8109 9.52841 12.2518 10.8342 12.2421 12.211C12.2314 13.6033 12.7749 14.9246 13.7705 15.9309C14.7681 16.9392 16.0856 17.4963 17.4808 17.5012H17.4983C20.3986 17.5012 22.7623 15.155 22.7681 12.2703C22.771 10.8682 22.2217 9.54494 21.2222 8.54251C20.2256 7.54396 18.9101 6.99365 17.5177 6.99268H17.5148L17.5139 6.99365ZM17.5168 16.6057H17.5002C15.1415 16.597 13.1483 14.6038 13.1483 12.2537C13.1483 9.90177 15.1415 7.90274 17.5012 7.8901H17.5245C18.667 7.8901 19.7511 8.34708 20.5775 9.17741C21.4118 10.0155 21.8687 11.1171 21.8629 12.279C21.8522 14.665 19.9028 16.6067 17.5177 16.6067L17.5168 16.6057Z" fill="black"/>
<path d="M28.003 8.75065C25.6325 8.74579 23.6267 6.74871 23.6238 4.38896C23.6209 2.0331 25.6218 0.0282391 27.9942 0.00976562H28.0263C29.1736 0.00976562 30.2635 0.469659 31.0949 1.30486C31.931 2.14491 32.389 3.24555 32.3831 4.40452C32.3724 6.80121 30.4113 8.75065 28.0117 8.75065H28.003ZM28.0049 0.888716C26.1478 0.888716 24.5163 2.51925 24.5134 4.37826C24.5105 6.26742 26.109 7.86587 28.003 7.86976C29.9281 7.86976 31.4906 6.30923 31.4935 4.3909C31.4964 2.49883 29.9038 0.894549 28.0166 0.887743H28.0059L28.0049 0.888716Z" fill="black"/>
<path d="M28.0263 0.017514C30.3996 0.017514 32.387 2.01751 32.3763 4.40449C32.3656 6.79048 30.3996 8.74381 28.0127 8.74381H28.0039C25.6315 8.73895 23.6344 6.75062 23.6315 4.38893C23.6286 2.03988 25.6296 0.0350152 27.9952 0.017514C28.0059 0.017514 28.0166 0.017514 28.0272 0.017514M28.0117 7.8775C29.9193 7.8775 31.4993 6.30045 31.5022 4.39185C31.5051 2.4881 29.9164 0.887713 28.0185 0.88188H28.0078C26.1352 0.88188 24.5114 2.50269 24.5085 4.37921C24.5056 6.27323 26.105 7.87459 28.0049 7.87848H28.0117M28.0263 0.00292969H27.9942C25.6179 0.0214032 23.6131 2.02918 23.616 4.38893C23.6189 6.75256 25.6276 8.75354 28.0029 8.75743H28.0117C29.1707 8.75743 30.2655 8.30337 31.0958 7.47789C31.9252 6.65339 32.3851 5.56151 32.3909 4.40351C32.3957 3.2426 31.9378 2.14002 31.1007 1.29899C30.2664 0.463795 29.1746 0.00292969 28.0263 0.00292969ZM28.0107 7.86292H28.0039C26.1138 7.85903 24.5192 6.2635 24.5221 4.37823C24.5251 2.5231 26.1527 0.895492 28.0068 0.895492H28.0175C29.9009 0.902298 31.4896 2.50269 31.4876 4.39087C31.4847 6.30531 29.9261 7.86195 28.0117 7.86195L28.0107 7.86292Z" fill="black"/>
<path d="M7.88042 8.75161C5.50901 8.74578 3.50415 6.74772 3.50317 4.387C3.50317 3.24359 3.96598 2.15073 4.80896 1.31068C5.63929 0.482286 6.76132 0.00683594 7.88917 0.00683594H7.9232C10.2898 0.0262817 12.2771 2.04087 12.2625 4.40547C12.2479 6.80217 10.2868 8.75161 7.89015 8.75161H7.88042ZM7.86875 0.885786C6.00488 0.901342 4.38115 2.54548 4.39379 4.4045C4.40643 6.28394 6.00876 7.87169 7.89403 7.87169H7.90959C9.82792 7.86294 11.3816 6.28977 11.3729 4.36464C11.3641 2.47937 9.7725 0.886758 7.89598 0.886758H7.86973L7.86875 0.885786Z" fill="black"/>
<path d="M7.88914 0.0145801C7.90081 0.0145801 7.9115 0.0145801 7.92317 0.0145801C10.2926 0.0340259 12.2693 2.03791 12.2557 4.40544C12.2411 6.79047 10.2742 8.7438 7.89109 8.7438H7.88136C5.50411 8.73796 3.51286 6.75255 3.51189 4.38697C3.50897 2.02625 5.52842 0.0145801 7.88914 0.0145801ZM7.894 7.87846H7.90956C9.81914 7.86971 11.3884 6.28099 11.3797 4.36363C11.3709 2.47933 9.7676 0.877973 7.89497 0.877973C7.88622 0.877973 7.87747 0.877973 7.86775 0.877973C5.99318 0.89353 4.37334 2.53378 4.38598 4.4035C4.39862 6.29071 6.0029 7.87749 7.89303 7.87749M7.88817 -0.000976562C6.75837 -0.000976562 5.6344 0.474473 4.80309 1.30481C3.95915 2.14681 3.49439 3.24161 3.49536 4.38697C3.49536 5.53524 3.9572 6.62712 4.79337 7.46135C5.62954 8.29557 6.72628 8.75644 7.87942 8.75935H7.88914C9.04617 8.75935 10.14 8.30529 10.9703 7.47982C11.8007 6.65435 12.2615 5.56344 12.2683 4.40641C12.2751 3.25717 11.8221 2.1614 10.9917 1.31939C10.1643 0.478362 9.07339 0.00971862 7.92317 -4.27278e-06H7.88914L7.88817 -0.000976562ZM7.89303 7.8629C6.01262 7.8629 4.4132 6.27904 4.40056 4.4035C4.38792 2.54837 6.00873 0.907142 7.86775 0.892558H7.894C9.76663 0.892558 11.3554 2.48225 11.3641 4.36363C11.3729 6.28488 9.82205 7.85512 7.90859 7.86388H7.89303V7.8629Z" fill="black"/>
<path d="M0.471467 16.6047C0.455911 16.6047 0.439382 16.6047 0.422853 16.6027C0.137 16.5804 -0.0137051 16.3752 0.0106022 16.0388C0.100053 14.7914 0.428687 13.7763 1.01595 12.9382C2.12436 11.3563 3.74808 10.5357 5.84142 10.4987C6.08936 10.4948 6.33826 10.4929 6.5862 10.4929C6.79038 10.4929 6.99456 10.4929 7.19971 10.4948C7.40389 10.4948 7.60807 10.4968 7.81323 10.4968C7.81323 10.4968 8.87497 10.4948 9.08887 10.4948C9.57891 10.4948 9.95518 10.4968 10.3081 10.5026C10.3402 10.5026 10.3742 10.4987 10.4102 10.4938C10.453 10.489 10.4967 10.4832 10.5376 10.4832C10.6066 10.4832 10.6494 10.4987 10.6747 10.5308C10.7019 10.5668 10.7038 10.6202 10.6825 10.6971C10.665 10.7583 10.6669 10.8351 10.6688 10.9168C10.6718 11.0539 10.6747 11.1958 10.5862 11.2872C10.5259 11.3485 10.4316 11.3786 10.2974 11.3786H10.2858C9.96102 11.3747 9.63627 11.3728 9.31153 11.3728C8.95664 11.3728 8.60175 11.3747 8.24687 11.3777C8.17297 11.3777 8.09811 11.3777 8.02421 11.3777C7.80837 11.3777 7.59252 11.3757 7.37667 11.3738C7.16082 11.3718 6.94497 11.3699 6.72912 11.3699C6.3334 11.3699 5.81128 11.3757 5.28819 11.4253C2.87594 11.6518 1.11415 13.4516 0.906081 15.9046C0.903164 15.9416 0.90122 15.9795 0.900247 16.0174C0.900247 16.0447 0.898303 16.0719 0.896358 16.0981C0.87594 16.4287 0.729124 16.6037 0.47244 16.6037L0.471467 16.6047Z" fill="black"/>
<path d="M10.5367 10.4909C10.6417 10.4909 10.7224 10.5269 10.6738 10.6961C10.6076 10.9265 10.8089 11.3718 10.2955 11.3718C10.2917 11.3718 10.2878 11.3718 10.2839 11.3718C9.95913 11.3679 9.63536 11.366 9.31061 11.366C8.95573 11.366 8.60084 11.3679 8.24498 11.3708C8.17109 11.3708 8.09622 11.3708 8.02233 11.3708C7.5916 11.3708 7.15894 11.3621 6.72821 11.3621C6.24596 11.3621 5.76467 11.3728 5.28728 11.4175C2.8653 11.645 1.10449 13.4797 0.898362 15.9036C0.892528 15.9678 0.892528 16.0329 0.888639 16.0971C0.871138 16.3771 0.760297 16.5959 0.471527 16.5959C0.45597 16.5959 0.439441 16.5959 0.422912 16.594C0.10789 16.5697 -0.00392289 16.3324 0.0174675 16.0378C0.0971952 14.9236 0.371381 13.8686 1.02184 12.9411C2.19248 11.2707 3.84343 10.5395 5.84148 10.5055C6.08942 10.5016 6.33735 10.4996 6.58529 10.4996C6.99462 10.4996 7.40395 10.5035 7.81231 10.5035H7.83079C8.24984 10.5035 8.6689 10.5016 9.08796 10.5016C9.50702 10.5016 9.89982 10.5035 10.3062 10.5094H10.3101C10.3704 10.5094 10.4599 10.4899 10.5357 10.4899M10.5357 10.4753C10.4939 10.4753 10.4501 10.4812 10.4074 10.486C10.3714 10.4909 10.3364 10.4948 10.3092 10.4948H10.3053C9.95232 10.4899 9.57605 10.487 9.08699 10.487C8.87114 10.487 8.65529 10.487 8.43944 10.487C8.23623 10.487 8.03302 10.487 7.82884 10.487H7.81037C7.60619 10.487 7.40104 10.487 7.19685 10.4851C6.99267 10.4851 6.78752 10.4831 6.58334 10.4831C6.29749 10.4831 6.06122 10.4851 5.83954 10.489C4.81572 10.5065 3.89885 10.7106 3.11324 11.0947C2.28679 11.4992 1.57799 12.1166 1.00823 12.9304C0.420968 13.7733 0.0913615 14.7894 0.00288314 16.0378C-0.0214241 16.3781 0.131225 16.5862 0.42194 16.6095C0.439441 16.6105 0.45597 16.6115 0.471527 16.6115C0.733073 16.6115 0.882805 16.4345 0.903223 16.0991C0.905168 16.0718 0.90614 16.0446 0.907113 16.0184C0.908085 15.9814 0.91003 15.9435 0.912946 15.9056C1.12102 13.4564 2.87989 11.6586 5.28922 11.433C5.81231 11.3844 6.33346 11.3776 6.72918 11.3776C6.94503 11.3776 7.1638 11.3796 7.37673 11.3815C7.58869 11.3835 7.80843 11.3854 8.02427 11.3854C8.09817 11.3854 8.17303 11.3854 8.24693 11.3854C8.66015 11.3825 8.99851 11.3805 9.31256 11.3805C9.66258 11.3805 9.98149 11.3825 10.2858 11.3864H10.2975C10.4336 11.3864 10.5299 11.3562 10.5911 11.293C10.6815 11.1997 10.6786 11.0568 10.6757 10.9177C10.6738 10.837 10.6718 10.7602 10.6893 10.6999C10.7117 10.6212 10.7088 10.5648 10.6806 10.5278C10.6543 10.4928 10.6086 10.4773 10.5376 10.4773L10.5357 10.4753Z" fill="black"/>
<path d="M34.5542 16.6018C34.2013 16.6018 34.1322 16.3004 34.1099 16.0058C33.9144 13.3184 31.8998 11.4166 29.2124 11.3806C28.7253 11.3738 28.2032 11.3709 27.5683 11.3709C27.1492 11.3709 26.7302 11.3719 26.3121 11.3738C25.893 11.3748 25.474 11.3767 25.0559 11.3767H24.8469C24.6942 11.3767 24.5299 11.2717 24.4171 11.1025C24.3063 10.9363 24.2722 10.7467 24.3296 10.6076C24.3733 10.5026 24.4511 10.489 24.5143 10.489C24.5416 10.489 24.5698 10.4919 24.597 10.4948C24.6232 10.4978 24.6495 10.4997 24.6738 10.4997C25.1201 10.4968 25.5654 10.4968 26.0321 10.4968H27.4069C27.5304 10.5017 27.6665 10.5036 27.824 10.5036C27.9815 10.5036 28.1381 10.5017 28.2995 10.4997C28.4667 10.4978 28.6368 10.4958 28.8099 10.4958C29.3233 10.4958 29.93 10.5133 30.5377 10.6407C33.1103 11.1784 34.9042 13.3087 35.0014 15.9406C35.0131 16.2605 34.9927 16.5746 34.6009 16.6018C34.5853 16.6028 34.5698 16.6037 34.5552 16.6037L34.5542 16.6018Z" fill="black"/>
<path d="M24.5123 10.4958C24.5658 10.4958 24.6222 10.5065 24.6718 10.5065H24.6737C25.119 10.5036 25.5644 10.5036 26.032 10.5036C26.4647 10.5036 26.9168 10.5036 27.4049 10.5036C27.541 10.5084 27.6801 10.5104 27.822 10.5104C28.138 10.5104 28.4686 10.5016 28.8069 10.5016C29.3689 10.5016 29.9533 10.524 30.5337 10.6455C33.084 11.1783 34.8954 13.33 34.9917 15.9387C35.0033 16.2517 34.9858 16.5658 34.5979 16.592C34.5823 16.593 34.5668 16.594 34.5522 16.594C34.2109 16.594 34.138 16.313 34.1156 16.0048C33.9183 13.3018 31.9222 11.4088 29.2114 11.3728C28.664 11.365 28.1156 11.3631 27.5682 11.3631C26.7301 11.3631 25.893 11.3679 25.0549 11.3679C24.9849 11.3679 24.9149 11.3679 24.8439 11.3679C24.5211 11.3679 24.21 10.9051 24.3325 10.6095C24.3714 10.5152 24.4384 10.4958 24.5104 10.4958M24.5104 10.4812C24.4452 10.4812 24.3645 10.4948 24.3188 10.6037C24.2605 10.7447 24.2945 10.9362 24.4073 11.1054C24.5211 11.2765 24.6883 11.3825 24.8439 11.3825H25.0549C25.4739 11.3825 25.893 11.3815 26.3111 11.3796C26.7301 11.3786 27.1482 11.3767 27.5673 11.3767C28.2022 11.3767 28.7243 11.3796 29.2104 11.3864C31.894 11.4224 33.9047 13.3213 34.1011 16.0048C34.1224 16.3033 34.1934 16.6076 34.5522 16.6076C34.5668 16.6076 34.5823 16.6076 34.5989 16.6056C34.9965 16.5784 35.0179 16.2605 35.0063 15.9377C34.9586 14.6543 34.5046 13.4671 33.6937 12.5045C32.8828 11.541 31.7909 10.8934 30.5366 10.6309C29.927 10.5036 29.3203 10.4861 28.8069 10.4861C28.6348 10.4861 28.4627 10.488 28.2965 10.4899C28.1322 10.4919 27.9766 10.4938 27.821 10.4938C27.6655 10.4938 27.5264 10.4919 27.4039 10.487C27.1511 10.487 26.91 10.487 26.6747 10.487C26.454 10.487 26.2401 10.487 26.0301 10.487C25.6314 10.487 25.1589 10.487 24.6718 10.4899C24.6455 10.4899 24.6212 10.487 24.594 10.4851C24.5668 10.4822 24.5376 10.4792 24.5104 10.4792V10.4812Z" fill="black"/>
</g>
<defs>
<clipPath id="clip0_9_229">
<rect width="35.0102" height="28" fill="white"/>
</clipPath>
</defs>
</svg>
